<?xml version="1.0" encoding="UTF-8"?>
<svg width="248px" height="61px" viewBox="0 0 248 61" version="1.1" xmlns="http://www.w3.org/2000/svg" xmlns:xlink="http://www.w3.org/1999/xlink">
    <!-- Generator: sketchtool 49.1 (51147) - http://www.bohemiancoding.com/sketch -->
    <title>29378F82-414A-460F-9012-6449576B6349</title>
    <desc>Created with sketchtool.</desc>
    <defs></defs>
    <g id="Page-1" stroke="none" stroke-width="1" fill="none" fill-rule="evenodd">
        <g id="HKUST-LOGO" transform="translate(-25.000000, -128.000000)" fill="#FFFFFF">
            <g id="HKUST-logo---White" transform="translate(25.187500, 128.156250)">
                <polygon id="Fill-1" points="51.3302214 16.1336699 49.6315417 16.1336699 49.6315417 4.06834951 46.3979107 4.06834951 46.3979107 2.51413592 54.5626485 2.51413592 54.5626485 4.06834951 51.3302214 4.06834951"></polygon>
                <polygon id="Fill-2" points="64.1173903 8.00565049 64.1173903 2.51353398 65.8160699 2.51353398 65.8160699 16.133068 64.1173903 16.133068 64.1173903 9.5947767 57.6332738 9.5947767 57.6332738 16.133068 55.9370019 16.133068 55.9370019 2.51353398 57.6332738 2.51353398 57.6332738 8.00565049"></polygon>
                <polygon id="Fill-3" points="68.4537786 2.51413592 75.7685748 2.51413592 75.7685748 4.06834951 70.1500505 4.06834951 70.1500505 7.87864078 75.6060505 7.87864078 75.6060505 9.43285437 70.1500505 9.43285437 70.1500505 14.5794563 75.7685748 14.5794563 75.7685748 16.1336699 68.4537786 16.1336699"></polygon>
                <polygon id="Fill-4" points="91.4833476 8.00565049 91.4833476 2.51353398 93.1796194 2.51353398 93.1796194 16.133068 91.4833476 16.133068 91.4833476 9.5947767 84.9992311 9.5947767 84.9992311 16.133068 83.3005515 16.133068 83.3005515 2.51353398 84.9992311 2.51353398 84.9992311 8.00565049"></polygon>
                <path d="M107.432517,9.32306019 C107.432517,6.32539029 105.193293,3.81408932 101.995779,3.81408932 C98.7982641,3.81408932 96.5590408,6.32539029 96.5590408,9.32306019 C96.5590408,12.4302835 99.0510796,14.8320311 101.995779,14.8320311 C104.939274,14.8320311 107.432517,12.4302835 107.432517,9.32306019 M109.131196,9.32306019 C109.131196,13.3705165 105.933682,16.4223612 101.995779,16.4223612 C98.0578757,16.4223612 94.8603612,13.3705165 94.8603612,9.32306019 C94.8603612,5.42247767 98.0927883,2.22496311 101.995779,2.22496311 C105.896361,2.22496311 109.131196,5.42247767 109.131196,9.32306019" id="Fill-5"></path>
                <polygon id="Fill-7" points="110.791953 1.86343689 121.015332 12.5743883 121.015332 2.51473786 122.712808 2.51473786 122.712808 16.6940777 112.490633 5.98312621 112.490633 16.1342718 110.791953 16.1342718"></polygon>
                <path d="M137.724151,9.27008932 L137.724151,9.81183689 C137.724151,13.5498951 135.086443,16.4223612 131.277355,16.4223612 C127.464656,16.4223612 124.392346,13.1357592 124.392346,9.36038058 C124.392346,5.43933204 127.538093,2.22496311 131.453122,2.22496311 C133.56955,2.22496311 135.664307,3.18205049 137.000617,4.86267184 L135.808773,6.00034175 C134.832423,4.66403107 133.187918,3.77797282 131.527763,3.77797282 C128.475918,3.77797282 126.092229,6.25315728 126.092229,9.30500194 C126.092229,12.1606136 128.441006,14.8693515 131.382093,14.8693515 C133.49852,14.8693515 135.770249,13.0442641 135.843685,10.8243029 L132.321122,10.8243029 L132.321122,9.27008932 L137.724151,9.27008932 Z" id="Fill-9"></path>
                <polygon id="Fill-11" points="152.459926 2.51413592 154.682295 2.51413592 148.559344 8.63708738 154.791849 16.1336699 152.49845 16.1336699 147.367499 9.79401942 146.682489 10.4441165 146.682489 16.1336699 144.982606 16.1336699 144.982606 2.51413592 146.682489 2.51413592 146.682489 8.42038835"></polygon>
                <path d="M167.618986,9.32306019 C167.618986,6.32539029 165.376151,3.81408932 162.179841,3.81408932 C158.984734,3.81408932 156.741899,6.32539029 156.741899,9.32306019 C156.741899,12.4302835 159.235142,14.8320311 162.179841,14.8320311 C165.122132,14.8320311 167.618986,12.4302835 167.618986,9.32306019 M169.311647,9.32306019 C169.311647,13.3705165 166.11654,16.4223612 162.179841,16.4223612 C158.244346,16.4223612 155.045627,13.3705165 155.045627,9.32306019 C155.045627,5.42247767 158.279258,2.22496311 162.179841,2.22496311 C166.081627,2.22496311 169.311647,5.42247767 169.311647,9.32306019" id="Fill-13"></path>
                <polygon id="Fill-15" points="170.976738 1.86343689 181.197709 12.5743883 181.197709 2.51473786 182.897592 2.51473786 182.897592 16.6940777 172.67301 5.98312621 172.67301 16.1342718 170.976738 16.1342718"></polygon>
                <path d="M197.908936,9.27008932 L197.908936,9.81183689 C197.908936,13.5498951 195.271227,16.4223612 191.46214,16.4223612 C187.645829,16.4223612 184.57713,13.1357592 184.57713,9.36038058 C184.57713,5.43933204 187.719266,2.22496311 191.637907,2.22496311 C193.754334,2.22496311 195.849091,3.18205049 197.185402,4.86267184 L195.993557,6.00034175 C195.017208,4.66403107 193.372703,3.77797282 191.712548,3.77797282 C188.660703,3.77797282 186.277014,6.25315728 186.277014,9.30500194 C186.277014,12.1606136 188.62579,14.8693515 191.566878,14.8693515 C193.679693,14.8693515 195.955033,13.0442641 196.02847,10.8243029 L192.505907,10.8243029 L192.505907,9.27008932 L197.908936,9.27008932 Z" id="Fill-17"></path>
                <path d="M49.1259107,24.1840388 L49.1259107,32.2199612 C49.1259107,34.4423301 49.794066,36.5021748 52.4125126,36.5021748 C55.0321631,36.5021748 55.7003184,34.4423301 55.7003184,32.2199612 L55.7003184,24.1840388 L57.3989981,24.1840388 L57.3989981,32.7990291 C57.3989981,35.796699 55.5377942,38.0925049 52.4125126,38.0925049 C49.288435,38.0925049 47.4272311,35.796699 47.4272311,32.7990291 L47.4272311,24.1840388 L49.1259107,24.1840388 Z" id="Fill-19"></path>
                <polygon id="Fill-21" points="59.7651107 23.5333398 69.9884893 34.2442913 69.9884893 24.1846408 71.685965 24.1846408 71.685965 38.3639806 61.4637903 27.6530291 61.4637903 37.8041748 59.7651107 37.8041748"></polygon>
                <polygon id="Fill-23" points="74.2326602 37.803332 75.9313398 37.803332 75.9313398 24.1837981 74.2326602 24.1837981"></polygon>
                <polygon id="Fill-25" points="83.1560854 34.2624699 87.201134 24.1835573 89.0623379 24.1835573 83.1560854 38.5266252 77.2305709 24.1835573 79.0917748 24.1835573"></polygon>
                <polygon id="Fill-26" points="90.3988893 24.1840388 97.7136854 24.1840388 97.7136854 25.7382524 92.0975689 25.7382524 92.0975689 29.5485437 97.5511612 29.5485437 97.5511612 31.1027573 92.0975689 31.1027573 92.0975689 36.2481553 97.7136854 36.2481553 97.7136854 37.8035728 90.3988893 37.8035728"></polygon>
                <path d="M101.688788,30.6331223 L102.230536,30.6331223 C103.964128,30.6331223 105.84339,30.3068699 105.84339,28.1398796 C105.84339,26.0090058 103.819662,25.7008117 102.140245,25.7008117 L101.688788,25.7008117 L101.688788,30.6331223 Z M108.461837,37.8034524 L106.403196,37.8034524 L102.391856,32.0440738 L101.688788,32.0440738 L101.688788,37.8034524 L99.9901087,37.8034524 L99.9901087,24.1839184 L102.049953,24.1839184 C103.259856,24.1839184 104.56005,24.2019767 105.64475,24.8171612 C106.781216,25.4841126 107.432517,26.7674524 107.432517,28.0676466 C107.432517,30.0179379 106.131118,31.6419767 104.162769,31.8779379 L108.461837,37.8034524 Z" id="Fill-27"></path>
                <path d="M116.029569,26.7675728 C115.525142,25.9176311 114.875045,25.484233 113.84452,25.484233 C112.759821,25.484233 111.567977,26.2246214 111.567977,27.416466 C111.567977,28.4831068 112.617763,29.0429126 113.465297,29.369165 L114.440443,29.7483883 C116.37388,30.5056311 117.817336,31.571068 117.817336,33.8500194 C117.817336,36.3227961 115.904365,38.0925049 113.465297,38.0925049 C111.260986,38.0925049 109.545452,36.4672621 109.25652,34.2798058 L110.972054,33.9198447 C110.953996,35.4198835 112.145841,36.5021748 113.609763,36.5021748 C115.073685,36.5021748 116.121064,35.2742136 116.121064,33.8500194 C116.121064,32.3824854 114.947278,31.7552621 113.772287,31.2640777 L112.832054,30.868 C111.280249,30.1998447 109.871705,29.3137864 109.871705,27.416466 C109.871705,25.2133592 111.821996,23.8951068 113.881841,23.8951068 C115.398734,23.8951068 116.644753,24.6354951 117.385142,25.9549515 L116.029569,26.7675728 Z" id="Fill-28"></path>
                <polygon id="Fill-29" points="119.804466 37.803332 121.503146 37.803332 121.503146 24.1837981 119.804466 24.1837981"></polygon>
                <polygon id="Fill-30" points="127.897934 37.8035728 126.19805 37.8035728 126.19805 25.7382524 122.965623 25.7382524 122.965623 24.1840388 131.129157 24.1840388 131.129157 25.7382524 127.897934 25.7382524"></polygon>
                <polygon id="Fill-31" points="131.237988 24.1840388 133.18828 24.1840388 136.531464 30 139.872241 24.1840388 141.822532 24.1840388 137.378998 31.8780583 137.378998 37.8035728 135.681522 37.8035728 135.681522 31.8780583"></polygon>
                <path d="M160.191146,30.9929631 C160.191146,27.9952932 157.955534,25.4839922 154.755612,25.4839922 C151.556893,25.4839922 149.321282,27.9952932 149.321282,30.9929631 C149.321282,34.1001864 151.810913,36.501934 154.755612,36.501934 C157.701515,36.501934 160.191146,34.1001864 160.191146,30.9929631 M161.891029,30.9929631 C161.891029,35.0416233 158.695922,38.0922641 154.755612,38.0922641 C150.816505,38.0922641 147.621398,35.0416233 147.621398,30.9929631 C147.621398,27.0923806 150.855029,23.894866 154.755612,23.894866 C158.66101,23.894866 161.891029,27.0923806 161.891029,30.9929631" id="Fill-32"></path>
                <polygon id="Fill-33" points="165.396979 25.7376505 165.396979 29.566 170.127037 29.566 170.127037 31.1202136 165.396979 31.1202136 165.396979 37.8029709 163.697095 37.8029709 163.697095 24.1834369 170.291969 24.1834369 170.291969 25.7376505"></polygon>
                <path d="M183.906687,26.7675728 C183.405872,25.9176311 182.753367,25.484233 181.724047,25.484233 C180.640551,25.484233 179.448707,26.2246214 179.448707,27.416466 C179.448707,28.4831068 180.496085,29.0429126 181.346027,29.369165 L182.319969,29.7483883 C184.252202,30.5056311 185.698066,31.571068 185.698066,33.8500194 C185.698066,36.3227961 183.782687,38.0925049 181.346027,38.0925049 C179.138105,38.0925049 177.423775,36.4672621 177.134843,34.2798058 L178.852784,33.9198447 C178.834726,35.4198835 180.026571,36.5021748 181.486882,36.5021748 C182.954416,36.5021748 183.998183,35.2742136 183.998183,33.8500194 C183.998183,32.3824854 182.828008,31.7552621 181.649406,31.2640777 L180.711581,30.868 C179.159775,30.1998447 177.748823,29.3137864 177.748823,27.416466 C177.748823,25.2133592 179.702726,23.8951068 181.762571,23.8951068 C183.279464,23.8951068 184.52428,24.6354951 185.264668,25.9549515 L183.906687,26.7675728 Z" id="Fill-34"></path>
                <path d="M197.655037,26.7851495 C196.681095,25.9171495 195.341173,25.4488388 194.061445,25.4488388 C191.0096,25.4488388 188.67527,27.9950524 188.67527,31.0119845 C188.67527,33.9903922 190.989134,36.5378097 194.021717,36.5378097 C195.362843,36.5378097 196.642571,36.0333825 197.655037,35.1304699 L197.655037,37.1373437 C196.607658,37.7501204 195.271348,38.0932272 194.078299,38.0932272 C190.195775,38.0932272 186.98261,35.0028583 186.98261,31.0661592 C186.98261,27.0367612 190.212629,23.8946252 194.222765,23.8946252 C195.415814,23.8946252 196.625717,24.1835573 197.655037,24.8168 L197.655037,26.7851495 Z" id="Fill-35"></path>
                <polygon id="Fill-36" points="199.806136 37.803332 201.502408 37.803332 201.502408 24.1837981 199.806136 24.1837981"></polygon>
                <polygon id="Fill-37" points="204.229324 24.1840388 211.54412 24.1840388 211.54412 25.7382524 205.929208 25.7382524 205.929208 29.5485437 211.381596 29.5485437 211.381596 31.1027573 205.929208 31.1027573 205.929208 36.2481553 211.54412 36.2481553 211.54412 37.8035728 204.229324 37.8035728"></polygon>
                <polygon id="Fill-38" points="213.660548 23.5333398 223.881518 34.2442913 223.881518 24.1846408 225.581402 24.1846408 225.581402 38.3639806 215.356819 27.6530291 215.356819 37.8041748 213.660548 37.8041748"></polygon>
                <path d="M238.09553,26.7851495 C237.121588,25.9171495 235.785278,25.4488388 234.50555,25.4488388 C231.450093,25.4488388 229.119375,27.9950524 229.119375,31.0119845 C229.119375,33.9903922 231.429627,36.5378097 234.465821,36.5378097 C235.803336,36.5378097 237.086676,36.0333825 238.09553,35.1304699 L238.09553,37.1373437 C237.051763,37.7501204 235.711841,38.0932272 234.518792,38.0932272 C230.63988,38.0932272 227.423103,35.0028583 227.423103,31.0661592 C227.423103,27.0367612 230.653122,23.8946252 234.66687,23.8946252 C235.859918,23.8946252 237.06621,24.1835573 238.09553,24.8168 L238.09553,26.7851495 Z" id="Fill-39"></path>
                <polygon id="Fill-40" points="240.299961 24.1840388 247.618369 24.1840388 247.618369 25.7382524 241.996233 25.7382524 241.996233 29.5485437 247.455845 29.5485437 247.455845 31.1027573 241.996233 31.1027573 241.996233 36.2481553 247.618369 36.2481553 247.618369 37.8035728 240.299961 37.8035728"></polygon>
                <path d="M52.7198641,48.9947534 L50.3000583,54.5037243 L55.1408738,54.5037243 L52.7198641,48.9947534 Z M49.5945825,56.0591417 L48.0427767,59.4733553 L46.2176893,59.4733553 L52.7198641,45.2771612 L59.2232427,59.4733553 L57.3981553,59.4733553 L55.8451456,56.0591417 L49.5945825,56.0591417 Z" id="Fill-41"></path>
                <polygon id="Fill-42" points="60.3787301 45.2032427 70.6021087 55.9141942 70.6021087 45.8557476 72.2995845 45.8557476 72.2995845 60.0338835 62.0774097 49.322932 62.0774097 59.4740777 60.3787301 59.4740777"></polygon>
                <path d="M76.4547883,57.9180583 L77.0507107,57.9180583 C80.519099,57.9180583 83.5179728,56.6202718 83.5179728,52.6631068 C83.5179728,48.6914951 80.519099,47.4081553 77.0507107,47.4081553 L76.4547883,47.4081553 L76.4547883,57.9180583 Z M74.7561087,45.8551456 L77.5744,45.8551456 C81.7470602,45.8551456 85.2154485,48.0570485 85.2154485,52.5920777 C85.2154485,57.2342524 81.8192932,59.4734757 77.5202252,59.4734757 L74.7561087,59.4734757 L74.7561087,45.8551456 Z" id="Fill-43"></path>
                <polygon id="Fill-44" points="96.1601942 59.4734757 94.4639223 59.4734757 94.4639223 47.4081553 91.2290874 47.4081553 91.2290874 45.8551456 99.3950291 45.8551456 99.3950291 47.4081553 96.1601942 47.4081553"></polygon>
                <polygon id="Fill-45" points="100.91108 45.8557476 108.225876 45.8557476 108.225876 47.4075534 102.609759 47.4075534 102.609759 51.2166408 108.063351 51.2166408 108.063351 52.7720583 102.609759 52.7720583 102.609759 57.9186602 108.225876 57.9186602 108.225876 59.4740777 100.91108 59.4740777"></polygon>
                <path d="M120.418928,48.4550524 C119.443783,47.5870524 118.107472,47.1187417 116.825336,47.1187417 C113.772287,47.1187417 111.442773,49.6649553 111.442773,52.6842951 C111.442773,55.6602951 113.754229,58.2077126 116.788016,58.2077126 C118.124326,58.2077126 119.40887,57.7032854 120.418928,56.8003728 L120.418928,58.8072466 C119.37155,59.4200233 118.035239,59.7631301 116.84219,59.7631301 C112.959666,59.7631301 109.744093,56.6727612 109.744093,52.7336544 C109.744093,48.7054602 112.97652,45.5669359 116.986656,45.5669359 C118.179705,45.5669359 119.389608,45.855868 120.418928,46.4867029 L120.418928,48.4550524 Z" id="Fill-46"></path>
                <polygon id="Fill-47" points="130.663134 51.3437709 130.663134 45.855266 132.355794 45.855266 132.355794 59.4735961 130.663134 59.4735961 130.663134 52.934101 124.17661 52.934101 124.17661 59.4735961 122.479134 59.4735961 122.479134 45.855266 124.17661 45.855266 124.17661 51.3437709"></polygon>
                <polygon id="Fill-48" points="134.832062 45.2032427 145.056645 55.9141942 145.056645 45.8557476 146.752917 45.8557476 146.752917 60.0338835 136.531946 49.322932 136.531946 59.4740777 134.832062 59.4740777"></polygon>
                <path d="M160.97066,52.662866 C160.97066,49.6651961 158.731437,47.1538951 155.531515,47.1538951 C152.336408,47.1538951 150.097184,49.6651961 150.097184,52.662866 C150.097184,55.7700893 152.586816,58.1718369 155.531515,58.1718369 C158.477417,58.1718369 160.97066,55.7700893 160.97066,52.662866 M162.666932,52.662866 C162.666932,56.7115262 159.471825,59.762167 155.531515,59.762167 C151.596019,59.762167 148.397301,56.7115262 148.397301,52.662866 C148.397301,48.7622835 151.630932,45.5659728 155.531515,45.5659728 C159.436913,45.5659728 162.666932,48.7622835 162.666932,52.662866" id="Fill-49"></path>
                <polygon id="Fill-50" points="166.190579 57.9180583 170.328326 57.9180583 170.328326 59.4734757 164.494307 59.4734757 164.494307 45.8551456 166.190579 45.8551456"></polygon>
                <path d="M183.240097,52.662866 C183.240097,49.6651961 181.000874,47.1538951 177.804563,47.1538951 C174.605845,47.1538951 172.366621,49.6651961 172.366621,52.662866 C172.366621,55.7700893 174.859864,58.1718369 177.804563,58.1718369 C180.746854,58.1718369 183.240097,55.7700893 183.240097,52.662866 M184.936369,52.662866 C184.936369,56.7115262 181.741262,59.762167 177.804563,59.762167 C173.869068,59.762167 170.67035,56.7115262 170.67035,52.662866 C170.67035,48.7622835 173.903981,45.5659728 177.804563,45.5659728 C181.70635,45.5659728 184.936369,48.7622835 184.936369,52.662866" id="Fill-51"></path>
                <path d="M199.171569,52.6098951 L199.171569,53.149235 C199.171569,56.8884971 196.53386,59.762167 192.724773,59.762167 C188.914482,59.762167 185.839763,56.475565 185.839763,52.6977786 C185.839763,48.7791379 188.985511,45.5659728 192.904151,45.5659728 C195.016967,45.5659728 197.111724,46.5218563 198.451647,48.2048854 L197.259802,49.3401476 C196.283452,48.0038369 194.635336,47.1177786 192.977588,47.1177786 C189.923336,47.1177786 187.539647,49.594167 187.539647,52.6448078 C187.539647,55.4980117 189.888423,58.2067495 192.829511,58.2067495 C194.945938,58.2067495 197.221278,56.3840699 197.294715,54.1653126 L193.772151,54.1653126 L193.772151,52.6098951 L199.171569,52.6098951 Z" id="Fill-52"></path>
                <polygon id="Fill-53" points="199.623025 45.8557476 201.576928 45.8557476 204.914093 51.6680971 208.257278 45.8557476 210.211181 45.8557476 205.767647 53.5485631 205.767647 59.4740777 204.066559 59.4740777 204.066559 53.5485631"></polygon>
                <path d="M27.2884272,12.4143922 C27.5701359,12.0616544 27.6688544,11.4344311 27.6688544,11.4344311 L10.7747573,11.4344311 C10.7747573,11.4344311 10.9830291,12.1326835 11.16,12.4143922 L27.2884272,12.4143922 Z" id="Fill-54"></path>
                <path d="M26.3078641,13.8499029 C26.6220777,13.5718058 26.938699,13.0071845 26.938699,13.0071845 L11.4736117,13.0071845 C11.4736117,13.0071845 11.645767,13.4297476 12.0346214,13.8499029 L26.3078641,13.8499029 Z" id="Fill-55"></path>
                <path d="M25.0876078,15.1443184 C25.4716466,14.9396583 25.7822485,14.5134835 25.7822485,14.5134835 L12.5563845,14.5134835 C12.5563845,14.5134835 12.8730058,14.8626097 13.1836078,15.1443184 L25.0876078,15.1443184 Z" id="Fill-56"></path>
                <path d="M23.5462757,16.3716777 C23.9230913,16.2272117 24.3504699,15.8780854 24.3504699,15.8780854 L14.0307806,15.8780854 C14.0307806,15.8780854 14.0307806,15.955134 14.7639456,16.3716777 L23.5462757,16.3716777 Z" id="Fill-57"></path>
                <path d="M15.9490485,17.1371068 C15.9490485,17.1371068 17.0349515,17.7715534 19.1694369,17.7715534 C21.3063301,17.7715534 22.6679223,17.1371068 22.6679223,17.1371068 L15.9490485,17.1371068 Z" id="Fill-58"></path>
                <path d="M15.7762913,18.5726175 C15.7762913,18.5726175 17.070466,18.6436466 17.8397476,19.2359573 C18.5729126,19.8704039 19.137534,20.9141709 19.137534,20.9141709 C19.137534,20.9141709 19.5889903,19.9053165 20.325767,19.3804233 C21.0637476,18.8158019 22.2519806,18.5726175 22.2519806,18.5726175 L35.5837864,18.5726175 L38.2082524,22.4599573 L26.236835,22.4599573 C26.236835,22.4599573 25.3977282,22.4948699 24.138466,23.2316466 C23.4727184,23.609666 22.981534,24.2790252 22.981534,24.2790252 C22.981534,24.2790252 22.8828155,24.5932388 22.7347379,24.7665981 C22.5974951,24.942365 22.4915534,25.0832194 22.3193981,25.1506369 C22.1424272,25.2240738 22.1773398,25.1819379 22.1773398,25.1819379 L15.9496505,25.1819379 C15.9496505,25.1819379 15.6992427,25.0832194 15.5680194,24.8677243 C15.427165,24.6606563 15.5294951,24.7304816 15.3922524,24.5619379 C15.2863107,24.384967 15.0395146,23.9262874 14.094466,23.2990641 C13.1169126,22.6634136 12.1682524,22.6008117 12.1682524,22.6008117 L0.000601941748,22.6008117 L2.65275728,18.5726175 L15.7762913,18.5726175 Z" id="Fill-59"></path>
                <path d="M6.3591534,24.0676233 L6.3591534,43.9365165 C6.3591534,43.9365165 6.43018252,45.6929825 7.90012427,48.0706524 C9.3712699,50.4483223 11.5045515,51.5342252 11.5045515,51.5342252 L13.1839689,48.9097592 C13.1839689,48.9097592 11.716435,48.0357398 10.5956194,46.3563223 C9.51212427,44.6781087 9.51212427,43.2382641 9.51212427,43.2382641 L9.51212427,24.0676233 L6.3591534,24.0676233 Z" id="Fill-60"></path>
                <path d="M28.8966951,23.9970757 L28.8966951,43.1677165 C28.8966951,43.1677165 28.6535107,45.0939301 27.7433748,46.4627456 C26.8332388,47.8592505 25.3235689,48.980066 25.3235689,48.980066 L26.9391806,51.5696194 C26.9391806,51.5696194 29.3866757,49.7842602 30.5785204,47.8941631 C31.7643456,46.004066 32.0532777,43.1677165 32.0532777,43.1677165 L32.0532777,23.9970757 L28.8966951,23.9970757 Z" id="Fill-61"></path>
                <path d="M1.36147184,24.0676233 L1.36147184,44.0147689 C1.36147184,44.0147689 1.56613204,47.0967107 3.49234563,50.3134874 C5.42096699,53.5302641 8.91584078,55.773099 8.91584078,55.773099 L10.5639573,53.1498369 C10.5639573,53.1498369 8.3235301,51.9579922 6.53937476,49.2275845 C4.71187961,46.4622641 4.61316117,43.9365165 4.61316117,43.9365165 L4.61316117,24.0676233 L1.36147184,24.0676233 Z" id="Fill-62"></path>
                <path d="M15.7762913,26.166233 L15.7762913,47.2317864 C15.7762913,47.2317864 15.6992427,47.3016117 15.6739612,47.6122136 C15.6354369,47.9300388 15.427165,48.1407184 15.427165,48.1407184 L8.39407767,59.7943107 L29.9508155,59.7943107 L22.9153204,47.8939223 L22.7070485,47.3654175 L22.6360194,46.8080194 L22.6360194,26.2047573 L20.0127573,26.2047573 L20.0127573,47.5845243 C20.0127573,47.5845243 20.0127573,47.8939223 20.1174951,48.1407184 C20.181301,48.3875146 20.325767,48.7691456 20.325767,48.7691456 L24.6609515,55.9081748 L13.6743107,55.9081748 L17.9456893,48.8040583 C17.9456893,48.8040583 18.0865437,48.5644854 18.1924854,48.2117476 C18.2623107,47.8939223 18.2912039,47.5845243 18.2912039,47.5845243 L18.2912039,26.166233 L15.7762913,26.166233 Z" id="Fill-63"></path>
                <path d="M33.7605049,23.9970757 L33.7605049,43.5914835 C33.7605049,43.5914835 33.7328155,46.1100078 31.8740194,49.0161825 C30.0224466,51.9223573 27.8843495,53.1491146 27.8843495,53.1491146 L29.4614369,55.8012699 C29.4614369,55.8012699 32.6746019,53.7703184 34.709165,50.5535417 C36.7015922,47.336765 36.9483883,43.5914835 36.9483883,43.5914835 L36.9483883,23.9970757 L33.7605049,23.9970757 Z" id="Fill-64"></path>
                <path d="M10.6656854,10.8731806 C10.6656854,10.8731806 9.58700583,4.96572427 13.9209864,2.01741359 C13.9209864,2.01741359 15.8821126,0.204365049 19.0639767,0.204365049 C22.460132,0.204365049 24.4176466,1.98490874 24.4176466,1.98490874 C29.1404816,5.4448699 27.7439767,10.8731806 27.7439767,10.8731806 L10.6656854,10.8731806 Z" id="Fill-65"></path>
            </g>
        </g>
    </g>
</svg>